<?xml version="1.0" encoding="UTF-8"?>
<!-- Generator: Adobe Illustrator 27.0.1, SVG Export Plug-In . SVG Version: 6.00 Build 0)  -->
<svg xmlns="http://www.w3.org/2000/svg" xmlns:xlink="http://www.w3.org/1999/xlink" version="1.1" id="OBJECTS" x="0px" y="0px" viewBox="0 0 164.3 172.2" style="enable-background:new 0 0 164.3 172.2;" xml:space="preserve">
<style type="text/css">
	.st0{fill:none;}
	.st1{fill:#5D9368;}
	.st2{fill:#43673B;}
</style>
<path class="st0" d="M95.4-131.6"></path>
<g>
	<g>
		<path class="st1" d="M60.1,6.8C24.1,21.1,4.1,53.2,0,82c8.5-34.4,36.7-61.9,72.8-68.3c26.9-4.8,51.3,1.5,73.3,17.8    c0,0-0.1,0.1-0.1,0.1l18.3-3.3C138.2,2.1,97.3-7.9,60.1,6.8z"></path>
		<path class="st2" d="M146,31.6c-8.4,13.7-16.7,27.4-25,41c0,0,0.1,0,0.1,0.1c14.4-14.7,28.8-29.5,43.3-44.3c0,0,0,0,0,0L146,31.6z    "></path>
	</g>
	<g>
		<path class="st1" d="M122.5,123.5c-0.3,0.4-13.4,11.4-21.4,14.4c-7.3,2.8-14.8,3.5-22.4,1.3c-6.5-1.9-11.9-5.5-16.4-10.4    C51.1,116.6,47.3,102.3,51,86c0.3-1.5,0.8-3,1.3-4.5c-8.7,13.3-9.9,35.8,5.2,52.2c7.8,8.5,17.7,13.3,29.2,14    c13,0.8,24.3-3.5,33.8-12.5c0,0,0,0,0,0L122.5,123.5C122.5,123.5,122.5,123.5,122.5,123.5z"></path>
		<path class="st2" d="M122.5,123.5l-2.1,11.7c12.1,12.3,24.3,24.6,36.5,37c0.1-0.4,0.2-0.5,0.2-0.7c0.6-3.4,1.7-11.2,1.7-11.2    S122.8,123.9,122.5,123.5z"></path>
	</g>
</g>
</svg>
